<svg width="36" height="32" viewBox="0 0 36 32" fill="none" xmlns="http://www.w3.org/2000/svg">
<path fill-rule="evenodd" clip-rule="evenodd" d="M17.3335 14.6663C16.9653 14.6663 16.6668 14.9648 16.6668 15.333V21.333C16.6668 21.7012 16.9653 21.9997 17.3335 21.9997H23.3335C23.7017 21.9997 24.0002 21.7012 24.0002 21.333V15.333C24.0002 14.9648 23.7017 14.6663 23.3335 14.6663H17.3335ZM15.3335 15.333C15.3335 14.2284 16.2289 13.333 17.3335 13.333H23.3335C24.4381 13.333 25.3335 14.2284 25.3335 15.333V21.333C25.3335 22.4376 24.4381 23.333 23.3335 23.333H17.3335C16.2289 23.333 15.3335 22.4376 15.3335 21.333V15.333Z" fill="#2A2A2A"/>
<path fill-rule="evenodd" clip-rule="evenodd" d="M12.6665 10.0003C12.4897 10.0003 12.3201 10.0706 12.1951 10.1956C12.0701 10.3206 11.9998 10.4902 11.9998 10.667V16.667C11.9998 16.8438 12.0701 17.0134 12.1951 17.1384C12.3201 17.2634 12.4897 17.3337 12.6665 17.3337H13.3332C13.7014 17.3337 13.9998 17.6321 13.9998 18.0003C13.9998 18.3685 13.7014 18.667 13.3332 18.667H12.6665C12.1361 18.667 11.6274 18.4563 11.2523 18.0812C10.8772 17.7061 10.6665 17.1974 10.6665 16.667V10.667C10.6665 10.1366 10.8772 9.62785 11.2523 9.25278C11.6274 8.87771 12.1361 8.66699 12.6665 8.66699H18.6665C19.1969 8.66699 19.7056 8.87771 20.0807 9.25278C20.4558 9.62785 20.6665 10.1366 20.6665 10.667V11.3337C20.6665 11.7018 20.368 12.0003 19.9998 12.0003C19.6316 12.0003 19.3332 11.7018 19.3332 11.3337V10.667C19.3332 10.4902 19.2629 10.3206 19.1379 10.1956C19.0129 10.0706 18.8433 10.0003 18.6665 10.0003H12.6665Z" fill="#2A2A2A"/>
</svg>
