<svg width="16" height="16" viewBox="0 0 16 16" fill="none" xmlns="http://www.w3.org/2000/svg">
<path d="M9.22725 8L15.8303 1.3969C16.0565 1.1707 16.0565 0.804933 15.8303 0.578734L15.4213 0.16965C15.1951 -0.0565499 14.8293 -0.0565499 14.6031 0.16965L8 6.77275L1.3969 0.174462C1.1707 -0.0517371 0.804933 -0.0517371 0.578734 0.174462L0.16965 0.583546C-0.0565499 0.809746 -0.0565499 1.17552 0.16965 1.40171L6.77275 8L0.174462 14.6031C-0.0517371 14.8293 -0.0517371 15.1951 0.174462 15.4213L0.583546 15.8303C0.809746 16.0565 1.17552 16.0565 1.40171 15.8303L8 9.22725L14.6031 15.8303C14.8293 16.0565 15.1951 16.0565 15.4213 15.8303L15.8303 15.4213C16.0565 15.1951 16.0565 14.8293 15.8303 14.6031L9.22725 8Z" fill="#8C8C8C"/>
</svg>
