<svg width="20" height="20" viewBox="0 0 20 20" fill="none" xmlns="http://www.w3.org/2000/svg">
<path fill-rule="evenodd" clip-rule="evenodd" d="M10 5.30362e-08C7.32863 5.30362e-08 4.81758 1.04028 2.92879 2.92906C1.04001 4.81812 0 7.32944 0 10.0005C0 12.6719 1.04028 15.183 2.92961 17.0715C4.81866 18.9605 7.33026 20.0005 10.0011 20C12.6725 20 15.1832 18.9597 17.072 17.0709C18.9605 15.1819 20.0008 12.6706 20.0005 9.99946C20.0005 7.32809 18.96 4.81731 17.0715 2.92852C15.1827 1.04001 12.6714 -0.000271207 10 5.30362e-08ZM3.55785 16.4435C1.8367 14.7226 0.888647 12.4348 0.888647 10.0008C0.888647 7.5668 1.83616 5.27872 3.55703 3.55757C5.27791 1.83643 7.56626 0.888647 10 0.888647C12.434 0.888647 14.7221 1.83616 16.4432 3.55703C18.1644 5.2779 19.1122 7.56598 19.1122 9.99973C19.1124 12.4337 18.1644 14.7221 16.4438 16.443C14.7229 18.1641 12.4351 19.1119 10.0011 19.1119C7.56734 19.1122 5.27899 18.1644 3.55785 16.4435Z" fill="black"/>
<path fill-rule="evenodd" clip-rule="evenodd" d="M18.9515 6.00086C17.2941 2.17555 13.3565 -0.203398 9.1248 0.140289C6.01074 0.328272 2.91865 2.38768 1.35917 5.14151C1.05026 5.68412 0.803311 6.25973 0.622974 6.8575C-0.569485 10.3844 0.567907 14.2865 2.95337 16.8225L3.42482 17.1865C1.73894 15.4719 0.652813 13.1421 0.453165 10.9012C0.277931 8.88625 0.730393 6.95949 1.67384 5.31349C2.57198 3.74615 3.91336 2.43433 5.57889 1.54542C8.25053 0.0282582 12.2771 0.158734 14.8484 1.82536C16.3221 2.66816 17.6139 4.01632 18.4193 5.45237C18.8997 6.34482 19.4305 7.40056 19.6519 8.8575C19.523 7.65772 19.3543 6.92938 18.9515 6.00086Z" fill="white"/>
<path fill-rule="evenodd" clip-rule="evenodd" d="M19.2288 10.6998C19.3539 8.73319 18.9047 6.68898 17.9401 5.17074C17.5657 4.60272 16.9302 3.79464 16.4807 3.25781C18.7102 5.3004 19.6753 7.96146 19.6262 10.8138C19.3945 14.5097 16.5428 18.0431 13.0091 19.1108C9.38858 20.2466 5.47294 19.2228 3.02564 16.4147C2.55771 15.9029 2.31141 15.5573 1.88282 14.8433C1.75451 14.6578 1.8972 14.5289 2.00353 14.6665C3.9075 17.8502 7.55351 19.6349 11.3742 19.1357C13.9948 18.7419 16.3982 17.1876 17.8839 14.8715C18.1275 14.9027 18.1959 14.7356 18.0597 14.5783C18.7576 13.4724 19.1401 12.1058 19.2288 10.6998Z" fill="white"/>
<path fill-rule="evenodd" clip-rule="evenodd" d="M1.56611 14.2613C1.22541 13.3873 0.696993 12.373 0.65332 10.373C0.854053 12.2873 1.41882 13.5359 1.82218 14.3364C1.91712 14.5136 1.74921 14.663 1.56611 14.2613Z" fill="white"/>
<path fill-rule="evenodd" clip-rule="evenodd" d="M10.0879 11.7411L17.696 14.8026C17.8172 14.8598 18.0665 15.002 18.1547 14.8669C18.223 14.7641 18.2257 14.731 18.0223 14.5487L17.99 14.5872L11.6102 9.17828L10.303 0.775187C10.2599 0.602394 10.2385 0.533224 10.0944 0.533224C9.96939 0.531053 9.95502 0.702761 9.93332 0.767592L8.5838 9.07411L2.16823 14.1711C2.0703 14.2479 1.8891 14.2837 1.73828 14.0108L1.92816 14.4798L2.26208 14.9084C2.22237 14.8342 2.19558 14.7539 2.18288 14.6707L2.22411 14.5536L10.0879 11.7411Z" fill="black"/>
<path fill-rule="evenodd" clip-rule="evenodd" d="M17.8067 14.6924L10.2529 10.1835L10.2535 11.8062L10.1018 11.7489L9.94045 11.7956L9.93719 10.1119L2.05383 14.42L8.94329 9.44594L8.50087 9.14945L8.58333 9.07431L8.60503 8.95224L8.61208 8.91671L9.03227 9.19312L9.93638 0.802781C9.95102 0.648162 10.0047 0.541016 10.1054 0.541016C10.238 0.541016 10.2668 0.731169 10.2668 0.835333L10.3395 9.73863L11.5813 9.00596L11.6101 9.1782L11.7286 9.27884L11.3084 9.53763C11.3084 9.53763 17.6914 14.3628 17.8924 14.5204C18.0934 14.6783 17.8924 14.764 17.8067 14.6924ZM9.79749 10.0186L9.40227 9.75626L7.57126 11.153L9.79749 10.0186ZM10.8204 9.82109L10.4935 10.0186L17.7318 14.5416L10.8204 9.82109ZM9.43455 9.46601L9.92281 9.78149L10.1233 0.70567L9.43455 9.46601Z" fill="white"/>
</svg>
